<?xml version="1.0" encoding="UTF-8" standalone="no"?>
<!-- Created with Inkscape (http://www.inkscape.org/) -->
<svg id="svg2985" xmlns:rdf="http://www.w3.org/1999/02/22-rdf-syntax-ns#" xmlns="http://www.w3.org/2000/svg" height="344" width="270" version="1.1" xmlns:cc="http://creativecommons.org/ns#" xmlns:dc="http://purl.org/dc/elements/1.1/">
 <metadata id="metadata2991">
  <rdf:RDF>
   <cc:Work rdf:about="">
    <dc:format>image/svg+xml</dc:format>
    <dc:type rdf:resource="http://purl.org/dc/dcmitype/StillImage"/>
    <dc:title/>
   </cc:Work>
  </rdf:RDF>
 </metadata>
 <g id="g3126" fill="#1c4994" transform="translate(-152,-30)">
  <path id="path3223" d="m237.5,332.46c-1.65-0.87148-4.2708-2.7936-5.824-4.2713-3.4238-3.2574-9.2554-12.653-10.205-16.442-0.6252-2.4947-0.32606-2.9074,3.1636-4.3655,2.1197-0.88568,8.8066-2.5021,14.86-3.592,15.818-2.8481,25.433-2.0728,61.506,4.9592,17.055,3.3246,42.851,3.8915,47.207,1.0373,1.41-0.92387,2.8402-1.4032,3.1783-1.0652,2.462,2.462-2.4045,12-9.838,19.281l-5.6147,5.5-47.716,0.27127c-41.964,0.23857-48.078,0.0803-50.716-1.3132z"/>
  <path id="path3203" d="m306,302.87c-5.775-1.0615-12.525-2.3632-15-2.8928-22.422-4.7977-49.028-5.0116-64.368-0.51745-4.8775,1.4289-9.6556,2.3482-10.618,2.0427-0.9936-0.31536-2.6664-3.0295-3.8704-6.2799-1.9551-5.278-1.992-5.8201-0.4729-6.951,2.9201-2.1738,16.569-5.9861,26.139-7.3013,10.968-1.5072,34.38-0.72159,46.69,1.5667,4.4,0.81787,13.175,2.4501,19.5,3.6272,22.175,4.1268,42.59,2.3366,54.817-4.8067,2.3743-1.3871,4.9721-2.2706,5.7729-1.9633,1.2578,0.48264,1.2331,1.0724-0.18132,4.3313-0.90054,2.0749-2.0837,5.433-2.6292,7.4623-1.4664,5.4549-5.3501,8.695-13.676,11.409-6.2342,2.0324-9.2266,2.386-19.485,2.3021-7.2482-0.0592-16.339-0.87474-22.619-2.029z"/>
  <path id="path3199" d="m349.19,299.32c-0.72188-0.28887-1.5844-0.25335-1.9167,0.0789-0.33229,0.33229,0.25834,0.56864,1.3125,0.52522,1.165-0.048,1.4019-0.28494,0.60417-0.60416z"/>
  <path id="path3195" d="m221,288c0-0.55-0.45-1-1-1s-1,0.45-1,1,0.45,1,1,1,1-0.45,1-1z"/>
  <path id="path3185" d="m322.5,277.93c-11.517-0.7466-19.986-1.853-34.38-4.4915-26.49-4.8559-42.913-4.5852-63.62,1.0486-15.493,4.2152-15.958,4.2328-17.437,0.66156-0.69015-1.6662-1.3242-4.4969-1.409-6.2905-0.14973-3.168,0.0601-3.3444,7.3459-6.175,11.592-4.5036,16.47-5.6501,30.5-7.1693,18.775-2.0329,39.61-0.45688,61.405,4.6448,11.471,2.6851,37.98,2.9928,42.795,0.49669,1.7602-0.91245,4.0102-1.6675,5-1.678,0.98981-0.0104,5.8497-2.0324,10.8-4.4934,4.95-2.4609,9.5625-4.4774,10.25-4.481,1.7952-0.01,1.4873,6.5952-0.55438,11.894-1.5506,4.0242-2.4224,4.7691-10.196,8.7116-7.6668,3.8885-16.177,6.3757-26,7.5988-1.925,0.23969-8.45,0.11491-14.5-0.27729z"/>
  <path id="path3183" d="M212.53,275.96c0.69-1.13-1.21-3.96-2.65-3.96-1.0246,0-1.188,3.3563-0.21089,4.3333,0.96949,0.9695,2.1221,0.81754,2.8604-0.37713z"/>
  <path id="path3179" d="m298.19,261.32c-0.72188-0.28887-1.5844-0.25335-1.9167,0.0789-0.33229,0.33229,0.25834,0.56864,1.3125,0.52522,1.165-0.048,1.4019-0.28494,0.60417-0.60416z"/>
  <path id="path3177" d="m239,259.94c0-0.58246-0.45-0.7809-1-0.44098s-1,0.81648-1,1.059c0,0.24254,0.45,0.44098,1,0.44098s1-0.47656,1-1.059z"/>
  <path id="path3175" d="m371.15,256.13c0.68765-1.8589,0.5236-2.2105-0.9045-1.9383-0.95948,0.18286-1.8949,1.3905-2.0787,2.6836-0.42487,2.9896,1.8079,2.4317,2.9832-0.74537z"/>
  <path id="path3161" d="m199.38,153.55c-0.30532-0.79565-0.0821-4.5082,0.49608-8.25,0.85779-5.5516,1.5637-7.2152,3.8365-9.0419,2.6808-2.1546,14.813-8.458,18.638-9.6839,4.997-1.6013,16.693-3.5751,21.147-3.5686,5.17,0.008,26.137,2.544,28.603,3.4602,6.1129,2.2711,36.783,6.465,47.397,6.4812,9.1385,0.014,24.541-1.9718,30-3.8676,1.65-0.57306,5.6044-1.9511,8.7875-3.0623,8.4794-2.9602,9.1277-2.7859,11.579,3.1129,1.1733,2.8234,2.1333,5.755,2.1333,6.5147,0,3.7221-19.245,10.62-36,12.904-19.096,2.6029-29.583,1.9759-58.5-3.4975-33.384-6.3187-49.593-5.0078-67.727,5.4775-8.4125,4.8642-9.556,5.1967-10.391,3.0212z"/>
  <path id="path3159" d="m204,151.44c0-0.85746-0.45-1.2809-1-0.94098s-1,1.0415-1,1.559c0,0.51754,0.45,0.94098,1,0.94098s1-0.70156,1-1.559z"/>
  <path id="path3157" d="m207.5,138c1.1423-1.2623,1.3576-2,0.58356-2-1.2448,0-4.0836,2.3834-4.0836,3.4286,0,1.2076,1.767,0.48637,3.5-1.4286z"/>
  <path id="path3155" d="m368,130.2c0-1.3675-0.89414-1.8503-3.75-2.0251l-3.75-0.22946,3.5,1.9025c1.925,1.0464,3.6125,1.9577,3.75,2.0251s0.25-0.68549,0.25-1.6731z"/>
  <path id="path3153" d="m226.5,130c0.33992-0.55-0.0835-1-0.94098-1-0.85746,0-1.559,0.45-1.559,1s0.42344,1,0.94098,1,1.2191-0.45,1.559-1z"/>
  <path id="path3151" d="m278.19,130.32c-0.72188-0.28887-1.5844-0.25335-1.9167,0.0789-0.33229,0.33229,0.25834,0.56864,1.3125,0.52522,1.165-0.048,1.4019-0.28494,0.60417-0.60416z"/>
  <path id="path3147" d="m209.27,123.25c0.70149-3.8532,4.3522-13.094,5.9186-14.982,1.8129-2.1846,12.393-6.799,18.682-8.1477,7.0111-1.5036,14.397-1.4111,23.269,0.29132,4.0463,0.77647,12.082,2.1572,17.857,3.0683,5.775,0.91108,13.875,2.3965,18,3.3009,5.3643,1.1761,12.626,1.655,25.5,1.6817,16.537,0.0343,18.849-0.18721,28.451-2.726,11.828-3.1274,11.683-3.1701,14.917,4.4235,2.5195,5.9173,1.7999,6.9076-7.1291,9.8116-17.528,5.7006-39.892,6.6138-63.791,2.6047-7.9462-1.333-16.473-2.9226-18.948-3.5325-2.475-0.60989-11.7-1.3728-20.5-1.6954-15.05-0.55173-16.506-0.43863-24.514,1.9042-4.6828,1.3699-10.301,3.4485-12.485,4.619-5.1612,2.7662-5.8292,2.6868-5.2269-0.62172z"/>
  <path id="path3145" d="m213.1,122.38c1.1599-1.3975,1.0864-1.5661-0.54469-1.25-1.0369,0.20094-2.0726,0.92784-2.3015,1.6153-0.59396,1.7839,1.26,1.5459,2.8462-0.36534z"/>
  <path id="path3143" d="M217,118.44c0-0.24-0.45-0.44-1-0.44s-1,0.47656-1,1.059c0,0.58246,0.45,0.7809,1,0.44098s1-0.81648,1-1.059z"/>
  <path id="path3141" d="m287.25,118.34c-0.6875-0.27741-1.8125-0.27741-2.5,0s-0.125,0.50439,1.25,0.50439,1.9375-0.22698,1.25-0.50439z"/>
  <path id="path3139" d="m361,114.42c0-0.87084-0.53438-1.4052-1.1875-1.1875-1.85,0.62-2.16,2.77-0.39,2.77,0.87,0,1.58-0.71,1.58-1.58z"/>
  <path id="path3137" d="m304.5,111c0.3797-0.61436-1.0437-0.94923-3.691-0.86836l-4.31,0.13,3.5,0.74c1.925,0.40519,3.5859,0.79596,3.691,0.86836,0.10504,0.0724,0.4691-0.31836,0.80902-0.86836z"/>
  <path id="path3135" d="m340.25,110.29c-1.2375-0.23836-3.2625-0.23836-4.5,0-1.2375,0.23835-0.225,0.43337,2.25,0.43337s3.4875-0.19502,2.25-0.43337z"/>
  <path id="path3133" d="m240.46,104.07c0.31644-0.512,0.0924-1.2294-0.49781-1.5941-1.4222-0.879-5.9595,0.29659-5.9595,1.5441,0,1.2487,5.6893,1.2928,6.4573,0.0501z"/>
  <path id="path3123" d="m290.5,97.832c-3.3-0.50959-10.725-1.8417-16.5-2.9603-19.631-3.8023-31.515-4.1031-50.75-1.2844-3.2176,0.47151-4.2477,0.29363-4.2406-0.73224,0.0186-2.6866,5.9832-11.693,10.048-15.172,8.12-6.957,5.79-6.684,57.28-6.684,27.457,0,47.574,0.39536,49.07,0.9644,3.5124,1.3354,13.937,12.132,16.086,16.66,2.3835,5.0228,1.2716,6.4641-6.5935,8.5469-5.0832,1.3462-10.715,1.6834-27.398,1.6409-11.55-0.02943-23.7-0.47044-27-0.98003z"/>
  <path id="path3121" d="m350,92.427c0-0.93124-0.68037-1.4414-1.6671-1.25-2.51,0.486-2.85,2.823-0.41,2.823,1.22,0,2.08-0.646,2.08-1.573z"/>
  <path id="path3119" d="m225.43,89.583c0.12873-1.6594-2.169-1.7029-2.8022-0.05295-0.43913,1.1444-0.13153,1.5209,1.0557,1.2923,0.92146-0.17746,1.7074-0.73515,1.7465-1.2393z"/>
  <path id="path3117" d="m228.74,84.548c-1.526-1.6567-2.1968-1.1808-1.3706,0.97226,0.33906,0.88358,1.0652,1.3292,1.6136,0.99026,0.63353-0.39154,0.54495-1.1071-0.24294-1.9625z"/>
 </g>
 <path id="path3001" fill="#09ace9" d="m-753.8,623.42c29.245-0.14723,77.395-0.14726,107-0.00008,29.605,0.14717,5.6766,0.26763-53.173,0.26767-58.85,0.00005-83.072-0.12037-53.827-0.26759zm28.971-25.339c-20.696-1.1837-55.915-5.5842-57.152-7.1409-0.52019-0.65451-8.4923-21.949-8.4923-22.684,0-1.1225,9.6606-4.5468,20.5-7.2664,7.9649-1.9984,11.415-2.2521,30-2.2061,18.6,0.0461,22.594,0.36161,34.946,2.7609,21.657,4.2067,47.087,6.0998,63.274,4.7103,10.937-0.93879,25.068-3.6614,34.434-6.6339,1.0545-0.33469,1.8464-0.0995,1.8464,0.54841,0,1.2994-11.489,24.608-13.43,27.246-3.0154,4.099-33.773,9.3241-63.338,10.76-21.669,1.0523-22.567,1.0503-42.588-0.0948zm-73.064-50.935c-1.9656-6.148-3.3418-11.554-3.0581-12.013,1.522-2.4626,21.69-8.2259,36.721-10.494,17.41-2.6268,34.01-1.7584,65.478,3.425,16.35,2.6932,44.312,4.5064,57.398,3.7219,13.04-0.78177,18.821-1.7432,35.089-5.836,6.9897-1.7585,13.002-2.9039,13.36-2.5453,0.35854,0.35854-0.9917,5.8705-3.0005,12.249-4.1973,13.327-2.5484,11.999-20.501,16.514-26.166,6.5814-51.118,6.3844-92.067-0.72697-19.598-3.4035-46.444-3.8701-59.5-1.0342-7.0053,1.5217-19.719,5.2549-24.673,7.245-1.3979,0.56155-2.2602-1.1653-5.2467-10.506zm-8.6059-29.227c-0.60641-2.3375-1.5212-5.825-2.033-7.75-1.6042-6.0347-1.2507-6.9386,3.5122-8.9802,18.569-7.9594,36.536-11.436,59.046-11.424,16.762,0.009,24.446,0.92201,41,4.8722,28.647,6.8359,60.507,7.0121,87,0.48097,8.6255-2.1264,25.573-8.3451,29.281-10.744,1.2547-0.8118,2.5889-1.1683,2.965-0.79217,0.85058,0.85058-2.5441,24.779-3.6765,25.915-0.45385,0.45525-2.3427,1.2128-4.1975,1.6834-1.8547,0.47063-7.8723,1.9923-13.372,3.3815-15.621,3.9457-27.115,4.8972-52.342,4.3329-16.327-0.36521-26.431-1.1122-36.158-2.6734-43.259-6.9423-65.419-6.8288-90.913,0.46598-4.7229,1.3514-10.387,3.1179-12.587,3.9255-5.8425,2.1449-6.314,1.9761-7.5255-2.6938zm247.22-61.25c-0.0204-1.65,0.18706-2.4461,0.46099-1.769,0.27392,0.67703,0.29059,2.027,0.0371,3-0.25354,0.97297-0.47766,0.41903-0.49804-1.231zm-282.12,0.0833c-0.0434-1.0542,0.19292-1.6448,0.52522-1.3125,0.33229,0.33229,0.36781,1.1948,0.0789,1.9167-0.31922,0.79773-0.55618,0.56078-0.60416-0.60417zm275.22-13.583c0-3.025,0.18747-4.2625,0.41659-2.75,0.22913,1.5125,0.22913,3.9875,0,5.5-0.22912,1.5125-0.41659,0.275-0.41659-2.75zm-268.03,0c0-2.475,0.19502-3.4875,0.43337-2.25,0.23836,1.2375,0.23836,3.2625,0,4.5-0.23835,1.2375-0.43337,0.225-0.43337-2.25zm0.0375-25.5c-0.006-3.3,0.17648-4.7706,0.40466-3.2679,0.22817,1.5026,0.23276,4.2026,0.0102,6s-0.40925,0.56791-0.41486-2.7321zm267.98,1c0.008-2.75,0.20172-3.7563,0.43157-2.2362,0.22986,1.5201,0.22371,3.7701-0.0136,5-0.23736,1.2299-0.42542-0.0138-0.41792-2.7638zm-275.21-14.917c-0.0434-1.0542,0.19292-1.6448,0.52522-1.3125,0.33229,0.33229,0.36781,1.1948,0.0789,1.9167-0.31922,0.79773-0.55618,0.56078-0.60416-0.60417zm22.063-25.333c0.43131-3.7125,1.301-9.5584,1.9328-12.991l1.1485-6.2409,6.9136-2.059c32.534-9.6891,62.408-10.316,112.36-2.3561,14.083,2.2438,20.261,2.712,36,2.7282,22.682,0.0233,36.536-2.32,54.5-9.2183,3.025-1.1616,5.95-2.1118,6.5-2.1116,0.55,0.0003,1.8079,3.2921,2.7954,7.3152,0.98749,4.0231,2.0326,8.2215,2.3224,9.3299,0.43687,1.6706-0.46883,2.4608-5.2954,4.6202-9.7154,4.3466-21.038,7.653-33.743,9.8536-16.083,2.7855-45.243,2.2616-58.579-1.0526-17.858-4.4378-29.587-6.1368-46.521-6.7388-28.958-1.0296-51.98,3.0809-74.259,13.259-2.9038,1.3266-5.6358,2.4119-6.0712,2.4119-0.43539,0-0.43872-3.0375-0.007-6.75zm5.8583-32.893c0-0.3539,1.6382-5.9402,3.6405-12.414l3.6405-11.77,11.253-3.0965c18.881-5.1954,29.321-6.3617,50.966-5.6935,18.261,0.56382,29.204,1.7131,47.5,4.989,29.872,5.3484,55.148,3.9095,78.032-4.4422,4.3352-1.5822,8.1249-2.4841,8.4214-2.0043,1.0812,1.7495,6.5465,19.306,6.5465,21.03,0,1.7766-3.5758,3.5204-13.937,6.797-14.282,4.5162-20.581,5.4367-40.563,5.927-17.227,0.42277-21.941,0.18903-34-1.686-29.167-4.5349-33.52-4.9968-53.079-5.6311-23.486-0.76165-33.536,0.22171-53.421,5.2272-14.509,3.6522-15,3.7429-15,2.7681zm134-34.984c-1.925-0.24742-11.6-1.7973-21.5-3.4442-37.158-6.1812-64.859-6.228-88.25-0.14927-8.6705,2.2533-11.25,2.614-11.25,1.573,0-1.4823,12.327-26.791,14.418-29.601,2.2658-3.0454,25.287-7.8506,46.582-9.7226,17.363-1.5264,58.214-1.2542,77.063,0.51339,14.971,1.404,38.755,4.8038,39.339,5.6233,1.3649,1.9166,8.6763,23.192,8.4227,24.509-0.40705,2.1137-10.318,5.7154-23.324,8.476-8.8064,1.8692-33.824,3.2089-41.5,2.2223zm-74.327-74.122c29.245-0.14723,77.395-0.14726,107-0.00008,29.605,0.14717,5.6766,0.26763-53.173,0.26767-58.85,0.00005-83.072-0.12037-53.827-0.26759z"/>
 <path id="path2999" fill="#e52028" d="m-760.47,452.17c0-13.2-0.39043-24-0.86763-24-0.47719,0-6.3824,5.5057-13.123,12.235l-12.255,12.235-12.127,0.015-12.127,0.0151-0.26534-28.75-0.26533-28.75,78.515-0.24315c43.183-0.13373,94.378-0.24623,113.77-0.25l35.25-0.007v7.8463c0,8.4494-0.99059,10.123-5.3223,8.9899-1.1801-0.3086-3.2778-0.27692-4.6617,0.0704l-2.516,0.63163v31.512,31.512l-12.25-0.28078-12.25-0.28078-0.26409-31.136-0.26408-31.136-2.2359-0.40251c-6.0181-1.0834-5.7359-2.6468-5.7359,31.78v31.458l-11.75-0.28173-11.75-0.28174-0.28417-10.783-0.28417-10.783-10.622,0.28348c-9.4671,0.25266-10.652,0.48552-10.893,2.1411-0.57068,3.9144,0.5569,4.6424,7.1908,4.6424h6.393v6.5,6.5h-20-20v-13.28-13.28l4.4933-6.9698c2.4713-3.8334,4.4963-7.2961,4.5-7.695,0.009-0.92843-3.279,0.33111-10.882,4.1689-5.4894,2.771-6.9442,3.0564-15.583,3.0564h-9.5285v-13.56-13.56l-3.716,0.31036-3.716,0.31037,0.2007,28c0.11039,15.4-0.057,29.688-0.37189,31.75l-0.5726,3.75h-11.912-11.912v-24zm105.8-15.2c1.2586-1.2586,1.7429-20.222,0.59301-23.218-0.53053-1.3826-3.6481-1.5799-24.75-1.5665-13.279,0.008-24.631,0.34592-25.227,0.75-1.007,0.68253-8.416,15.356-8.416,16.668,0,0.3241,3.1004-1.6658,6.8897-4.4219l6.8897-5.0111h14.61,14.61v8.4396,8.4396l3.75,0.39226c7.6184,0.79691,9.878,0.70049,11.05-0.47153zm-126.81-19.467c7.1967-4.8054,7.6446-4.4121-5.2393-4.6014l-6.25-0.0918-0.30158,6.3288-0.30158,6.3288,2.8016-1.8157c1.5409-0.99864,5.7218-3.7656,9.2909-6.1488z"/>
 <path id="path2999-1" fill="#e52028" d="m85.592,183.48c0-10.069-0.29781-18.307-0.66181-18.307s-4.8684,4.1997-10.01,9.3326l-9.3479,9.3326-9.2505,0.0114-9.2505,0.0115-0.2024-21.93-0.203-21.92,59.893-0.19c32.94-0.10201,71.99-0.18782,86.778-0.1907l26.888-0.005v5.985c0,6.4451-0.7556,7.7214-4.0597,6.8573-0.90016-0.23539-2.5003-0.21123-3.5558,0.0537l-1.9192,0.4818v24.037,24.037l-9.3441-0.21418-9.3441-0.21417-0.20144-23.75-0.20144-23.75-1.7055-0.30703c-4.5905-0.82638-4.3752-2.0189-4.3752,24.241v23.996l-8.9627-0.21489-8.9627-0.21491-0.21676-8.2254-0.21676-8.2254-8.1025,0.21623c-7.2213,0.19273-8.125,0.37036-8.3091,1.6332-0.43531,2.9858,0.42479,3.5411,5.485,3.5411h4.8765v4.9581,4.9581h-15.256-15.256v-10.13-10.13l3.4274-5.3164c1.8851-2.924,3.4297-5.5653,3.4325-5.8696,0.007-0.70819-2.5012,0.25256-8.3003,3.18-4.1872,2.1137-5.2969,2.3313-11.887,2.3313h-7.2682v-10.344-10.344l-2.8345,0.23673-2.8345,0.23675,0.15309,21.358c0.0842,11.747-0.0435,22.645-0.28367,24.218l-0.43677,2.8604h-9.0863-9.0863v-18.307zm80.702-11.594c0.96-0.96,1.3294-15.425,0.45233-17.71-0.40467-1.0546-2.7827-1.2051-18.879-1.1949-10.129,0.006-18.788,0.26386-19.243,0.57208-0.76813,0.52062-6.4196,11.713-6.4196,12.714,0,0.24722,2.3649-1.2706,5.2553-3.3729l5.2553-3.8224h11.144,11.144v6.4376,6.4376l2.8604,0.29921c5.8112,0.60787,7.5347,0.53432,8.4287-0.35968zm-96.725-14.85c5.4895-3.6655,5.8311-3.3655-3.9965-3.5098l-4.7674-0.07-0.23004,4.8275-0.23003,4.8275,2.137-1.385c1.1754-0.76174,4.3645-2.8723,7.0869-4.6902z"/>
 <path id="path4415" fill="#171718" d="M78.333,342.24c-11.442-1.93-20.05-6.58-29.658-16.02-7.637-7.5-18.342-20.6-18.342-22.44,0-0.4516-1.2308-3.0153-2.7351-5.697-18.042-32.16-26.254-72.04-26.262-127.53-0.007-53.09,10.181-99.756,28.027-128.36,9.371-15.02,16.52-23.167,26.232-29.897,13.91-9.6392,21.317-10.589,82.585-10.589,46.912,0,55.782,0.52516,63.658,3.7688,15.507,6.3867,28.643,19.743,41.533,42.231,2.5088,4.3769,7.4094,15.181,9.0715,20,1.0434,3.025,2.2944,6.4,2.7801,7.5,2.2448,5.0844,8.3443,28.453,9.5271,36.5,3.1421,21.378,4.0863,37.556,4.0564,69.5-0.0261,27.938-0.34181,35.67-1.7706,43.37-0.95634,5.1535-2.1729,12.431-2.7035,16.172-0.53056,3.741-1.5952,8.7495-2.366,11.13-0.7707,2.3806-2.5405,7.9283-3.9329,12.328-2.326,7.3504-6.4684,17.779-10.526,26.5-0.89569,1.925-4.0056,7.4642-6.911,12.309-14.592,24.334-25.873,34.284-44.01,38.816-6.8795,1.7192-11.78,1.866-59.125,1.772-36.57-0.0726-53.81-0.47137-59.123-1.3674zm100.86-9.5542c11.995-0.91499,14.135-1.3761,20.905-4.5041,9.6242-4.4466,14.703-8.6465,21.413-17.707,8.5538-11.55,18.279-28.488,21.818-38,4.0658-10.928,9.1519-29.805,10.445-38.764,0.35708-2.475,1.0609-6.525,1.5641-9,2.6189-12.882,3.8106-57.21,2.0566-76.5-3.8586-42.435-9.6839-66.202-22.369-91.266-12.082-23.873-29.473-40.227-46.03-43.288-3.7499-0.69321-23.509-0.93258-56.954-0.68998-54.248,0.3935-54.269,0.39525-63.859,5.3019-5.7883,2.9615-15.407,11.173-19.519,16.664-8.1288,10.855-9.2338,12.583-13.636,21.327-6.0863,12.09-13.698,32.721-13.698,37.127,0,0.79599-0.7019,3.7818-1.5598,6.6352-2.7644,9.1945-3.2738,11.948-4.8446,26.188-2.67,24.204-3.8955,52.917-2.689,63,0.59233,4.95,1.0807,11.608,1.0852,14.795,0.0307,21.724,12.563,67.895,23.49,86.539,1.9349,3.3013,3.5179,6.4517,3.5179,7.0008,0,0.54912,0.35418,1.1484,0.78707,1.3317,0.43289,0.18333,1.9707,2.3583,3.4174,4.8333,3.9106,6.6903,18.678,21.281,24.288,23.996,6.2273,3.0146,10.978,4.0826,22.008,4.9473,14.365,1.1262,73.738,1.1479,88.363,0.0323z"/>
</svg>
