<?xml version="1.0" encoding="iso-8859-1"?>
<!-- Uploaded to: SVG Repo, www.svgrepo.com, Generator: SVG Repo Mixer Tools -->
<svg version="1.1" id="Layer_1" xmlns="http://www.w3.org/2000/svg" xmlns:xlink="http://www.w3.org/1999/xlink" 
	 viewBox="0 0 511.984 511.984" xml:space="preserve">
<path style="fill:#48CFAD;" d="M464.455,187.558L268.414,60.461c-3.438-2.227-7.844-2.289-11.344-0.164L47.795,187.394
	c-3.172,1.93-5.125,5.391-5.125,9.117v267.305c0,5.891,4.781,10.672,10.672,10.672h405.316c5.891,0,10.672-4.781,10.672-10.672
	V196.511C469.33,192.894,467.502,189.527,464.455,187.558z"/>
<path style="fill:#F0F2F5;" d="M506.265,166.371L260.93,38.375c-3.094-1.609-6.766-1.609-9.859,0L5.733,166.371
	C2.217,168.207,0,171.855,0,175.831v42.663c0,3.727,1.952,7.188,5.14,9.117c3.188,1.938,7.156,2.062,10.469,0.344L255.992,102.53
	L496.39,227.956c1.547,0.797,3.25,1.203,4.938,1.203c1.922,0,3.828-0.516,5.531-1.547c3.188-1.93,5.125-5.391,5.125-9.117v-42.663
	C511.984,171.855,509.781,168.207,506.265,166.371z"/>
<path style="fill:#434A54;" d="M415.987,474.488H95.997c-5.891,0-10.656-4.781-10.656-10.672V229.503
	c0-5.898,4.766-10.672,10.656-10.672h319.99c5.905,0,10.671,4.773,10.671,10.672v234.313
	C426.658,469.707,421.892,474.488,415.987,474.488z"/>
<rect x="351.992" y="400.142" style="fill:#FFCE54;" width="63.998" height="63.998"/>
<path style="fill:#F6BB42;" d="M415.987,474.816h-63.998c-5.891,0-10.656-4.781-10.656-10.672v-63.998
	c0-5.891,4.766-10.656,10.656-10.656h63.998c5.905,0,10.671,4.766,10.671,10.656v63.998
	C426.658,470.035,421.892,474.816,415.987,474.816z M362.66,453.488h42.671v-42.67H362.66V453.488z"/>
<rect x="287.992" y="400.142" style="fill:#FFCE54;" width="63.999" height="63.998"/>
<path style="fill:#F6BB42;" d="M351.989,474.816H287.99c-5.89,0-10.655-4.781-10.655-10.672v-63.998
	c0-5.891,4.766-10.656,10.655-10.656h63.999c5.905,0,10.671,4.766,10.671,10.656v63.998
	C362.66,470.035,357.894,474.816,351.989,474.816z M298.662,453.488h42.671v-42.67h-42.671V453.488z"/>
<rect x="319.992" y="336.152" style="fill:#FFCE54;" width="63.998" height="63.998"/>
<path style="fill:#F6BB42;" d="M383.988,410.818H319.99c-5.891,0-10.656-4.781-10.656-10.672v-63.998
	c0-5.891,4.766-10.656,10.656-10.656h63.998c5.906,0,10.672,4.766,10.672,10.656v63.998
	C394.66,406.037,389.894,410.818,383.988,410.818z M330.662,389.49h42.67v-42.671h-42.67L330.662,389.49L330.662,389.49z"/>
<rect x="351.992" y="272.152" style="fill:#FFCE54;" width="63.998" height="63.999"/>
<path style="fill:#F6BB42;" d="M415.987,346.819h-63.998c-5.891,0-10.656-4.781-10.656-10.671v-63.999
	c0-5.882,4.766-10.647,10.656-10.647h63.998c5.905,0,10.671,4.766,10.671,10.647v63.999
	C426.658,342.038,421.892,346.819,415.987,346.819z M362.66,325.492h42.671v-42.671H362.66V325.492z"/>
<rect x="383.992" y="336.152" style="fill:#FFCE54;" width="42.67" height="63.998"/>
<path style="fill:#F6BB42;" d="M426.658,389.49H394.66v-42.671h31.998v-21.327h-42.67c-5.891,0-10.656,4.766-10.656,10.656v63.998
	c0,5.891,4.766,10.672,10.656,10.672h42.67L426.658,389.49L426.658,389.49z"/>
<rect x="95.992" y="400.142" style="fill:#FFCE54;" width="63.998" height="63.998"/>
<path style="fill:#F6BB42;" d="M85.341,464.144v-63.998c0-5.891,4.766-10.656,10.656-10.656h63.998
	c5.906,0,10.671,4.766,10.671,10.656v63.998c0,5.891-4.765,10.672-10.671,10.672H95.997
	C90.106,474.816,85.341,470.035,85.341,464.144z M149.339,410.818h-42.671v42.67h42.671V410.818z"/>
<rect x="159.992" y="400.142" style="fill:#FFCE54;" width="63.998" height="63.998"/>
<path style="fill:#F6BB42;" d="M149.339,464.144v-63.998c0-5.891,4.766-10.656,10.656-10.656h63.998
	c5.906,0,10.672,4.766,10.672,10.656v63.998c0,5.891-4.766,10.672-10.672,10.672h-63.998
	C154.104,474.816,149.339,470.035,149.339,464.144z M213.337,410.818h-42.671v42.67h42.671V410.818z"/>
<rect x="127.992" y="336.152" style="fill:#FFCE54;" width="63.998" height="63.998"/>
<path style="fill:#F6BB42;" d="M117.34,400.146v-63.998c0-5.891,4.766-10.656,10.656-10.656h63.998
	c5.906,0,10.671,4.766,10.671,10.656v63.998c0,5.891-4.765,10.672-10.671,10.672h-63.998
	C122.105,410.818,117.34,406.037,117.34,400.146z M181.338,346.819h-42.671v42.671h42.671V346.819z"/>
<rect x="95.992" y="272.152" style="fill:#FFCE54;" width="63.998" height="63.999"/>
<path style="fill:#F6BB42;" d="M85.341,336.148v-63.999c0-5.882,4.766-10.647,10.656-10.647h63.998
	c5.906,0,10.671,4.766,10.671,10.647v63.999c0,5.89-4.765,10.671-10.671,10.671H95.997
	C90.106,346.819,85.341,342.038,85.341,336.148z M149.339,282.821h-42.671v42.671h42.671V282.821z"/>
<rect x="85.342" y="336.152" style="fill:#FFCE54;" width="42.655" height="63.998"/>
<path style="fill:#F6BB42;" d="M85.341,389.49h31.999v-42.671H85.341v-21.327h42.655c5.906,0,10.671,4.766,10.671,10.656v63.998
	c0,5.891-4.765,10.672-10.671,10.672H85.341V389.49z"/>
<path style="fill:#656D78;" d="M479.985,474.488H31.999c-5.891,0-10.656-4.781-10.656-10.672s4.766-10.672,10.656-10.672h447.986
	c5.906,0,10.671,4.781,10.671,10.672S485.891,474.488,479.985,474.488z"/>
<path style="fill:#E6E9ED;" d="M415.987,218.831H95.997c-5.891,0-10.656,4.773-10.656,10.672v42.646h341.317v-42.646
	C426.658,223.604,421.892,218.831,415.987,218.831z"/>
<path style="fill:#CCD1D9;" d="M276.944,272.149h-41.889c-5.891,0-10.672-4.757-10.672-10.647c0-5.906,4.781-10.672,10.672-10.672
	h41.889c5.891,0,10.671,4.766,10.671,10.672C287.615,267.392,282.835,272.149,276.944,272.149z"/>
</svg>